<svg width="14" height="14" viewBox="0 0 14 14" fill="none" xmlns="http://www.w3.org/2000/svg">
<path d="M6.472 9.972V4.82H7.528V9.972H6.472ZM7 4.084C6.78667 4.084 6.62667 4.03067 6.52 3.924C6.41333 3.81733 6.36 3.66267 6.36 3.46C6.36 3.24667 6.41333 3.092 6.52 2.996C6.62667 2.88933 6.78667 2.836 7 2.836C7.17067 2.836 7.31467 2.88933 7.432 2.996C7.56 3.092 7.624 3.24667 7.624 3.46C7.624 3.67333 7.56 3.83333 7.432 3.94C7.31467 4.036 7.17067 4.084 7 4.084ZM7 13.38C6.09333 13.38 5.24 13.2093 4.44 12.868C3.64 12.5267 2.936 12.0573 2.328 11.46C1.73067 10.852 1.26133 10.148 0.92 9.348C0.578667 8.548 0.408 7.69467 0.408 6.788C0.408 5.87067 0.578667 5.01733 0.92 4.228C1.26133 3.428 1.73067 2.72933 2.328 2.132C2.936 1.524 3.64 1.04933 4.44 0.707999C5.24 0.366666 6.09333 0.195999 7 0.195999C7.91733 0.195999 8.77067 0.366666 9.56 0.707999C10.36 1.04933 11.0587 1.524 11.656 2.132C12.264 2.72933 12.7387 3.428 13.08 4.228C13.4213 5.01733 13.592 5.87067 13.592 6.788C13.592 7.69467 13.4213 8.548 13.08 9.348C12.7387 10.148 12.264 10.852 11.656 11.46C11.0587 12.0573 10.36 12.5267 9.56 12.868C8.77067 13.2093 7.91733 13.38 7 13.38ZM7 12.484C7.78933 12.484 8.52533 12.34 9.208 12.052C9.90133 11.7533 10.5093 11.3427 11.032 10.82C11.5547 10.2973 11.96 9.69467 12.248 9.012C12.5467 8.31867 12.696 7.57733 12.696 6.788C12.696 5.99867 12.5467 5.26267 12.248 4.58C11.96 3.88667 11.5547 3.27867 11.032 2.756C10.5093 2.23333 9.90133 1.828 9.208 1.54C8.52533 1.24133 7.78933 1.092 7 1.092C6.21067 1.092 5.46933 1.24133 4.776 1.54C4.09333 1.828 3.49067 2.23333 2.968 2.756C2.44533 3.27867 2.03467 3.88667 1.736 4.58C1.448 5.26267 1.304 5.99867 1.304 6.788C1.304 7.57733 1.448 8.31867 1.736 9.012C2.03467 9.69467 2.44533 10.2973 2.968 10.82C3.49067 11.3427 4.09333 11.7533 4.776 12.052C5.46933 12.34 6.21067 12.484 7 12.484Z" fill="#9EAAB5"/>
</svg>
