<svg width="48" height="48" viewBox="0 0 48 48" fill="none" xmlns="http://www.w3.org/2000/svg">
<rect width="48" height="48" rx="24" fill="#96E7F5"/>
<circle cx="24" cy="23.9998" r="20" fill="url(#paint0_linear_771_9875)"/>
<path d="M31.501 12.75C31.501 13.9926 30.4936 15 29.251 15C28.0083 15 27.001 13.9926 27.001 12.75C27.001 11.5074 28.0083 10.5 29.251 10.5C30.4936 10.5 31.501 11.5074 31.501 12.75Z" stroke="white" stroke-width="2.24999"/>
<path d="M28.5009 37.5004L27.5048 33.5765C27.1751 32.2778 26.4932 31.0919 25.532 30.1453L23.2509 27.899M15.001 22.7294C16.501 19.7748 18.8075 18.0627 24.0009 18.0013M24.0009 18.0013C24.3289 17.9974 24.8175 17.9963 25.3057 17.9963C26.063 17.9965 26.4416 17.9965 26.7433 18.1375C27.0449 18.2784 27.3544 18.6481 27.9732 19.3875C28.1505 19.5993 28.3326 19.7891 28.5009 19.9154M24.0009 18.0013L22.0973 20.9386C21.0507 22.5535 20.5274 23.361 20.507 24.2087C20.4979 24.5864 20.5602 24.9623 20.6906 25.3168C20.9835 26.1127 21.7393 26.7081 23.2509 27.899M28.5009 19.9154C30.233 21.2143 32.9449 21.7374 36.0009 18.298M28.5009 19.9154L23.2509 27.899" stroke="white" stroke-width="2.24999" stroke-linecap="round" stroke-linejoin="round"/>
<path d="M12.001 32.5954L13.0183 32.8374C15.6109 33.4542 18.3058 32.2747 19.5009 30" stroke="white" stroke-width="2.24999" stroke-linecap="round" stroke-linejoin="round"/>
<defs>
<linearGradient id="paint0_linear_771_9875" x1="24" y1="3.99976" x2="23.9577" y2="38.185" gradientUnits="userSpaceOnUse">
<stop offset="0.4" stop-color="#3675D7"/>
<stop offset="1" stop-color="#67EBF7"/>
</linearGradient>
</defs>
</svg>
