<svg width="24" height="24" viewBox="0 0 24 24" fill="none" xmlns="http://www.w3.org/2000/svg">
<path d="M12 14.4287C13.7646 14.4287 15.4705 14.9112 16.8408 15.7715L17.1104 15.9492C18.6862 17.0333 19.6706 18.5569 19.9883 20.375V20.376C20.0271 20.5981 19.9674 20.7724 19.8857 20.873L19.8281 20.9307C19.8079 20.9467 19.7857 20.9593 19.7637 20.9697C19.7199 20.9905 19.6735 21.0006 19.6279 21H4.37109C4.32554 21.0006 4.27911 20.9905 4.23535 20.9697C4.19148 20.9488 4.14902 20.916 4.11426 20.873C4.04285 20.7848 3.98839 20.6405 4.00195 20.457L4.01172 20.376C4.32936 18.5579 5.31373 17.0338 6.88965 15.9492C8.30213 14.978 10.1175 14.4287 12 14.4287ZM12 3C13.0231 3 13.9259 3.40209 14.5723 4.12207C15.2284 4.85304 15.5688 5.85841 15.4883 6.98145C15.319 9.34724 13.6095 11 12 11C10.3897 11 8.67819 9.34587 8.51172 6.98145C8.43186 5.84057 8.77317 4.83478 9.4209 4.11426C10.0607 3.40265 10.9656 3 12 3Z" stroke="#9EAAB5" stroke-width="2"/>
</svg>
