<svg width="24" height="24" viewBox="0 0 24 24" fill="none" xmlns="http://www.w3.org/2000/svg">
<path d="M16.249 4C18.9064 4.00001 20.9999 5.9894 21 9.00293C21 10.7558 20.2445 12.58 18.7617 14.4238C17.2787 16.2679 15.1103 18.077 12.4082 19.7686H12.4072C12.2783 19.8494 12.1528 19.9183 12.0488 19.9639C12.0306 19.9719 12.014 19.977 12 19.9824C11.986 19.977 11.9694 19.9719 11.9512 19.9639C11.8472 19.9183 11.7217 19.8494 11.5928 19.7686C8.89524 18.0769 6.72667 16.2682 5.24219 14.4238C3.75771 12.5794 3 10.7552 3 9.00293C3.00013 5.99058 5.09239 4.00006 7.76074 4C9.33049 4 10.501 4.69259 11.1777 5.67188C11.3637 5.9409 11.6691 6.10224 11.9961 6.10352C12.3232 6.10466 12.6305 5.94554 12.8184 5.67773C13.5162 4.68284 14.6801 4 16.249 4Z" fill="#0D1216" stroke="#0D1216" stroke-width="2" stroke-linejoin="round"/>
</svg>
