<svg width="24" height="24" viewBox="0 0 24 24" fill="none" xmlns="http://www.w3.org/2000/svg">
<path d="M15.553 15.553C16.2086 14.8973 16.7287 14.119 17.0835 13.2624C17.4383 12.4058 17.6209 11.4877 17.6209 10.5605C17.6209 9.63327 17.4383 8.71515 17.0835 7.85854C16.7287 7.00192 16.2086 6.22359 15.553 5.56796C14.8973 4.91234 14.119 4.39227 13.2624 4.03745C12.4058 3.68262 11.4877 3.5 10.5605 3.5C9.63327 3.5 8.71515 3.68262 7.85854 4.03745C7.00192 4.39227 6.22359 4.91234 5.56796 5.56796C4.24387 6.89205 3.5 8.68791 3.5 10.5605C3.5 12.433 4.24387 14.2289 5.56796 15.553C6.89205 16.8771 8.68791 17.6209 10.5605 17.6209C12.433 17.6209 14.2289 16.8771 15.553 15.553ZM15.553 15.553L20 20" stroke="#9EAAB5" stroke-width="2" stroke-linecap="round" stroke-linejoin="round"/>
</svg>
