<svg width="24" height="24" viewBox="0 0 24 24" fill="none" xmlns="http://www.w3.org/2000/svg">
<path d="M12.001 2C6.47851 2 2.00195 6.47724 2.00195 12C2.00195 13.3301 2.26525 14.6004 2.73828 15.7637L2.00977 20.8574C1.96268 21.187 2.08282 21.5192 2.33008 21.7422C2.57721 21.965 2.91936 22.0503 3.24219 21.9697L7.4668 20.9131C8.82911 21.6073 10.3705 21.999 12.001 21.999C17.5233 21.999 22 17.5228 22 12C22 6.47728 17.5234 2.00007 12.001 2ZM8.14551 13.0693C8.61511 12.7787 9.23178 12.924 9.52246 13.3936C10.0526 14.2498 10.9704 14.8008 12 14.8008C13.0296 14.8008 13.9474 14.2498 14.4775 13.3936C14.7682 12.924 15.3849 12.7787 15.8545 13.0693C16.324 13.36 16.4694 13.9767 16.1787 14.4463C15.3089 15.8513 13.7685 16.8008 12 16.8008C10.2315 16.8008 8.69104 15.8513 7.82129 14.4463C7.53064 13.9767 7.67605 13.3601 8.14551 13.0693ZM14.9648 9.19727C15.5171 9.19727 15.9648 9.64498 15.9648 10.1973C15.9648 10.7496 15.5171 11.1973 14.9648 11.1973H14.8799C14.3277 11.1972 13.8799 10.7495 13.8799 10.1973C13.8799 9.64505 14.3277 9.19737 14.8799 9.19727H14.9648ZM9.21582 9.19727C9.76805 9.19733 10.2158 9.64502 10.2158 10.1973C10.2158 10.7495 9.76805 11.1972 9.21582 11.1973H9.12012C8.56783 11.1973 8.12012 10.7496 8.12012 10.1973C8.12012 9.64498 8.56783 9.19727 9.12012 9.19727H9.21582Z" fill="#0D1216"/>
</svg>
