<svg width="24" height="24" viewBox="0 0 24 24" fill="none" xmlns="http://www.w3.org/2000/svg">
<path d="M12.001 2C6.47851 2 2.00195 6.47724 2.00195 12C2.00195 13.3301 2.26526 14.6004 2.73828 15.7637L2.00977 20.8574C1.96268 21.187 2.08282 21.5192 2.33008 21.7422C2.57721 21.965 2.91936 22.0503 3.24219 21.9697L7.4668 20.9131C8.82911 21.6073 10.3705 21.999 12.001 21.999C17.5233 21.999 22 17.5228 22 12C22 6.47728 17.5234 2.00007 12.001 2ZM12.001 4C16.4186 4.00007 20 7.58167 20 12C20 16.4182 16.4188 19.999 12.001 19.999C10.5766 19.999 9.24185 19.6286 8.08594 18.9785L8.00098 18.9355C7.79824 18.8458 7.57037 18.8257 7.35352 18.8799L4.20117 19.668L4.75586 15.7773C4.78233 15.592 4.75634 15.4027 4.68066 15.2314C4.2444 14.2446 4.00195 13.1519 4.00195 12C4.00195 7.58163 7.58326 4 12.001 4ZM9.52246 13.3926C9.23177 12.923 8.61509 12.7787 8.14551 13.0693C7.67618 13.36 7.53087 13.9758 7.82129 14.4453C8.69104 15.8504 10.2315 16.7998 12 16.7998C13.7685 16.7998 15.309 15.8504 16.1787 14.4453C16.4691 13.9759 16.3237 13.36 15.8545 13.0693C15.3849 12.7787 14.7682 12.9231 14.4775 13.3926C13.9474 14.249 13.0297 14.7998 12 14.7998C10.9702 14.7998 10.0526 14.249 9.52246 13.3926ZM14.8799 9.19727C14.3276 9.19729 13.8799 9.64499 13.8799 10.1973C13.8801 10.7494 14.3277 11.1972 14.8799 11.1973H14.9648C15.517 11.1973 15.9646 10.7494 15.9648 10.1973C15.9648 9.64498 15.5171 9.19727 14.9648 9.19727H14.8799ZM9.12012 9.19727C8.56783 9.19727 8.12012 9.64498 8.12012 10.1973C8.12033 10.7494 8.56796 11.1973 9.12012 11.1973H9.21582C9.76785 11.1971 10.2156 10.7493 10.2158 10.1973C10.2158 9.64507 9.76798 9.19741 9.21582 9.19727H9.12012Z" fill="#9EAAB5"/>
</svg>
