<svg width="24" height="24" viewBox="0 0 24 24" fill="none" xmlns="http://www.w3.org/2000/svg">
<path d="M8.39187 10.9583L8.14292 11.9268C8.6268 12.0511 9.12824 11.7993 9.31741 11.3369L8.39187 10.9583ZM3.91988 10.9688C4.13679 11.4767 4.72438 11.7126 5.23228 11.4957C5.74018 11.2788 5.97607 10.6912 5.75915 10.1833L4.83951 10.576L3.91988 10.9688ZM6.73626 5.85138L6.3435 4.93174L6.73626 5.85138ZM5.58097 5.69236C5.79788 6.20026 6.38547 6.43615 6.89337 6.21923C7.40127 6.00232 7.63716 5.41473 7.42024 4.90683L6.5006 5.29959L5.58097 5.69236ZM6.71327 3.25148C6.49635 2.74358 5.90877 2.50769 5.40086 2.72461C4.89296 2.94152 4.65707 3.52911 4.87399 4.03701L5.79363 3.64424L6.71327 3.25148ZM9.01645 4.88917C8.8107 5.40169 9.05938 5.98398 9.57191 6.18974C10.0844 6.39549 10.6667 6.14681 10.8725 5.63428L9.94446 5.26173L9.01645 4.88917ZM11.5431 3.96387C11.7488 3.45134 11.5001 2.86906 10.9876 2.6633C10.4751 2.45754 9.89281 2.70623 9.68706 3.21875L10.6151 3.59131L11.5431 3.96387ZM2.79406 6.16265C2.28153 5.95689 1.69925 6.20558 1.49349 6.7181C1.28773 7.23063 1.53642 7.81291 2.04894 8.01867L2.4215 7.09066L2.79406 6.16265ZM3.71936 8.68927C4.23188 8.89503 4.81417 8.64635 5.01992 8.13382C5.22568 7.62129 4.977 7.03901 4.46447 6.83325L4.09192 7.76126L3.71936 8.68927ZM10.065 7.4018C10.4388 7.80838 11.0714 7.83498 11.478 7.4612C11.8846 7.08743 11.9112 6.45482 11.5374 6.04824L10.8012 6.72502L10.065 7.4018ZM21.5999 13.5518H20.5999C20.5999 16.7864 17.9779 19.4089 14.7428 19.4089V20.4089V21.4089C19.0826 21.4089 22.5999 17.8908 22.5999 13.5518H21.5999ZM14.7428 6.69464V7.69464C17.9779 7.69464 20.5999 10.3172 20.5999 13.5518H21.5999H22.5999C22.5999 9.21273 19.0826 5.69464 14.7428 5.69464V6.69464ZM8.39187 10.9583L9.31741 11.3369C10.1922 9.1986 12.2939 7.69464 14.7428 7.69464V6.69464V5.69464C11.4541 5.69464 8.63797 7.71567 7.46632 10.5796L8.39187 10.9583ZM7.1999 10.8089V11.8089C7.5287 11.8089 7.84415 11.85 8.14292 11.9268L8.39187 10.9583L8.64082 9.98974C8.17887 9.871 7.69611 9.80892 7.1999 9.80892V10.8089ZM2.3999 15.6089H3.3999C3.3999 13.51 5.10049 11.8089 7.1999 11.8089V10.8089V9.80892C3.99574 9.80892 1.3999 12.4056 1.3999 15.6089H2.3999ZM7.1999 20.4089V19.4089C5.10049 19.4089 3.3999 17.7078 3.3999 15.6089H2.3999H1.3999C1.3999 18.8122 3.99574 21.4089 7.1999 21.4089V20.4089ZM14.7428 20.4089V19.4089H7.1999V20.4089V21.4089H14.7428V20.4089ZM4.83951 10.576L5.75915 10.1833C5.19517 8.86272 5.80848 7.335 7.12903 6.77102L6.73626 5.85138L6.3435 4.93174C4.00715 5.92956 2.92205 8.63244 3.91988 10.9688L4.83951 10.576ZM6.5006 5.29959L7.42024 4.90683L6.71327 3.25148L5.79363 3.64424L4.87399 4.03701L5.58097 5.69236L6.5006 5.29959ZM9.94446 5.26173L10.8725 5.63428L11.5431 3.96387L10.6151 3.59131L9.68706 3.21875L9.01645 4.88917L9.94446 5.26173ZM2.4215 7.09066L2.04894 8.01867L3.71936 8.68927L4.09192 7.76126L4.46447 6.83325L2.79406 6.16265L2.4215 7.09066ZM6.73626 5.85138L7.12903 6.77102C8.16867 6.327 9.33919 6.61225 10.065 7.4018L10.8012 6.72502L11.5374 6.04824C10.2559 4.65426 8.18685 4.14447 6.3435 4.93174L6.73626 5.85138Z" fill="#9EAAB5"/>
</svg>
