<svg width="207" height="24" viewBox="0 0 207 24" fill="none" xmlns="http://www.w3.org/2000/svg">
<path d="M22 18V22H18V18H22ZM32 8C32 6.89544 31.1046 6.00001 30 6H18V2H30C33.3137 2.00001 36 4.6863 36 8C36 10.4417 34.5406 12.5408 32.4473 13.4775C34.6408 15.6519 35.9999 18.6668 36 21.9995H32C31.9999 17.5929 28.4369 14.0187 24.0347 14H18V10H30C31.1046 9.99999 32 9.10456 32 8Z" fill="#0D1216"/>
<rect x="5" y="2" width="13" height="4" fill="url(#paint0_linear_1098_4115)"/>
<rect y="18" width="18" height="4" fill="url(#paint1_linear_1098_4115)"/>
<mask id="mask0_1098_4115" style="mask-type:alpha" maskUnits="userSpaceOnUse" x="7" y="10" width="11" height="4">
<path d="M9 10C10.1046 10 11 10.8954 11 12C11 13.1046 10.1046 14 9 14C7.89543 14 7 13.1046 7 12C7 10.8954 7.89543 10 9 10ZM18 14H15C13.8954 14 13 13.1046 13 12C13 10.8954 13.8954 10 15 10H18V14Z" fill="#01DF82"/>
</mask>
<g mask="url(#mask0_1098_4115)">
<rect x="7" y="10" width="11" height="4" fill="url(#paint2_linear_1098_4115)"/>
</g>
<mask id="path-6-inside-1_1098_4115" fill="white">
<path d="M48 0H207V24H48V0Z"/>
</mask>
<path d="M207 24V12H48V24V36H207V24Z" fill="#97F597" mask="url(#path-6-inside-1_1098_4115)"/>
<path d="M53.1914 19V4.85938H58.7383C61.9609 4.85938 63.7969 6.67578 63.7969 9.46875C63.7969 11.4023 62.9082 12.8086 61.2969 13.4922L64.3047 19H61.0625L58.3672 13.9805H56.1211V19H53.1914ZM56.1211 11.5977H58.1914C59.9297 11.5977 60.7695 10.875 60.7695 9.46875C60.7695 8.04297 59.9297 7.26172 58.1914 7.26172H56.1211V11.5977ZM74.5781 4.85938H77.5273V14.0391C77.5273 17.1445 75.1836 19.1953 71.668 19.1953C68.1523 19.1953 65.8281 17.1445 65.8281 14.0391V4.85938H68.7578V13.8047C68.7578 15.4258 69.9102 16.6172 71.668 16.6172C73.4453 16.6172 74.5781 15.4258 74.5781 13.8047V4.85938ZM91.707 4.85938V19H89.168L82.957 10.0156H82.8398V19H79.9102V4.85938H82.4883L88.6602 13.8438H88.7969V4.85938H91.707ZM97.2539 19L93.2109 4.85938H96.4141L98.7969 14.7422H98.9141L101.512 4.85938H104.266L106.863 14.7617H106.98L109.363 4.85938H112.566L108.523 19H105.652L102.957 9.66406H102.84L100.125 19H97.2539ZM115.008 19H111.844L116.746 4.85938H120.516L125.398 19H122.254L121.199 15.7383H116.082L115.008 19ZM116.824 13.4531H120.457L118.68 8.04297H118.582L116.824 13.4531ZM124.695 4.85938H127.996L131.258 10.9531H131.395L134.637 4.85938H137.938L132.781 13.9609V19H129.852V13.9609L124.695 4.85938ZM144.07 19V4.85938H149.617C152.84 4.85938 154.676 6.83203 154.676 9.625C154.676 12.457 152.801 14.3906 149.539 14.3906H147V19H144.07ZM147 12.0273H149.07C150.809 12.0273 151.648 11.0508 151.648 9.625C151.648 8.21875 150.809 7.26172 149.07 7.26172H147V12.0273ZM169.48 11.9297C169.48 16.5391 166.609 19.1953 162.879 19.1953C159.109 19.1953 156.258 16.5195 156.258 11.9297C156.258 7.32031 159.109 4.66406 162.879 4.66406C166.609 4.66406 169.48 7.32031 169.48 11.9297ZM166.492 11.9297C166.492 8.90234 165.066 7.26172 162.879 7.26172C160.691 7.26172 159.246 8.90234 159.246 11.9297C159.246 14.957 160.691 16.5977 162.879 16.5977C165.066 16.5977 166.492 14.957 166.492 11.9297ZM174.52 4.85938V19H171.59V4.85938H174.52ZM188.699 4.85938V19H186.16L179.949 10.0156H179.832V19H176.902V4.85938H179.48L185.652 13.8438H185.789V4.85938H188.699ZM190.535 7.28125V4.85938H202.117V7.28125H197.781V19H194.871V7.28125H190.535Z" fill="#0D1216"/>
<defs>
<linearGradient id="paint0_linear_1098_4115" x1="5" y1="4" x2="18" y2="4" gradientUnits="userSpaceOnUse">
<stop stop-color="#97F597" stop-opacity="0"/>
<stop offset="1" stop-color="#19B268"/>
</linearGradient>
<linearGradient id="paint1_linear_1098_4115" x1="0" y1="20" x2="18" y2="20" gradientUnits="userSpaceOnUse">
<stop stop-color="#97F597" stop-opacity="0"/>
<stop offset="1" stop-color="#19B268"/>
</linearGradient>
<linearGradient id="paint2_linear_1098_4115" x1="7" y1="12" x2="18" y2="12" gradientUnits="userSpaceOnUse">
<stop stop-color="#97F597" stop-opacity="0"/>
<stop offset="1" stop-color="#19B268"/>
</linearGradient>
</defs>
</svg>
