<svg width="16" height="14" viewBox="0 0 16 14" fill="none" xmlns="http://www.w3.org/2000/svg">
<path d="M1.03516 11.2054C1.03516 11.8366 1.54684 12.3483 2.17801 12.3483H13.8209C14.452 12.3483 14.9638 11.8366 14.9638 11.2054V9.10293C14.0377 8.8519 13.3566 8.00552 13.3566 7.00007C13.3566 5.99462 14.0377 5.14824 14.9638 4.89722V2.79471C14.9638 2.16354 14.452 1.65186 13.8209 1.65186H2.17801C1.54684 1.65186 1.03516 2.16354 1.03516 2.79471V4.89245C1.97025 5.13739 2.66015 5.98816 2.66015 7.00007C2.66015 8.01198 1.97025 8.86276 1.03516 9.1077V11.2054Z" stroke="#19B268" stroke-width="2" stroke-linecap="round" stroke-linejoin="round"/>
<path d="M10.4102 1.66064V3.53565" stroke="#19B268" stroke-width="2" stroke-linecap="round" stroke-linejoin="round"/>
<path d="M10.4102 6.0625V7.93749" stroke="#19B268" stroke-width="2" stroke-linecap="round" stroke-linejoin="round"/>
<path d="M10.4102 10.4731V12.3481" stroke="#19B268" stroke-width="2" stroke-linecap="round" stroke-linejoin="round"/>
</svg>
