<svg width="16" height="12" viewBox="0 0 16 12" fill="none" xmlns="http://www.w3.org/2000/svg">
<path d="M1.03516 10.2052C1.03516 10.8364 1.54684 11.3481 2.17801 11.3481H13.8209C14.452 11.3481 14.9638 10.8364 14.9638 10.2052V8.10269C14.0377 7.85166 13.3566 7.00528 13.3566 5.99983C13.3566 4.99438 14.0377 4.148 14.9638 3.89697V1.79447C14.9638 1.16329 14.452 0.651611 13.8209 0.651611H2.17801C1.54684 0.651611 1.03516 1.16329 1.03516 1.79447V3.89221C1.97025 4.13714 2.66015 4.98792 2.66015 5.99983C2.66015 7.01174 1.97025 7.86251 1.03516 8.10745V10.2052Z" stroke="#9EAAB5" stroke-width="1.14286" stroke-linecap="round" stroke-linejoin="round"/>
<path d="M10.4102 0.660645V2.53565" stroke="#9EAAB5" stroke-width="1.14286" stroke-linecap="round" stroke-linejoin="round"/>
<path d="M10.4102 5.06238V6.93737" stroke="#9EAAB5" stroke-width="1.14286" stroke-linecap="round" stroke-linejoin="round"/>
<path d="M10.4102 9.47314V11.3481" stroke="#9EAAB5" stroke-width="1.14286" stroke-linecap="round" stroke-linejoin="round"/>
</svg>
