<svg width="28" height="28" viewBox="0 0 28 28" fill="none" xmlns="http://www.w3.org/2000/svg">
<path d="M19.9482 2.2002C23.8982 2.2002 26.9999 5.17319 27 9.60449C27 12.1777 25.8902 14.8171 23.7773 17.4443C21.6644 20.0717 18.5901 22.6315 14.7832 25.0146C14.593 25.1339 14.3992 25.242 14.2295 25.3164C14.1455 25.3532 14.0786 25.3763 14.0303 25.3896C14.0175 25.3932 14.0074 25.3949 14 25.3965C13.9926 25.3949 13.9825 25.3932 13.9697 25.3896C13.9214 25.3763 13.8545 25.3532 13.7705 25.3164C13.6008 25.242 13.407 25.1339 13.2168 25.0146C9.41672 22.6315 6.34238 20.0719 4.22754 17.4443C2.11263 14.8166 1 12.1771 1 9.60449C1.00009 5.17432 4.10055 2.2002 8.06543 2.2002C10.39 2.20026 12.1532 3.23132 13.1777 4.71387C13.3637 4.98273 13.6692 5.14423 13.9961 5.14551C14.3231 5.14665 14.6304 4.98737 14.8184 4.71973C15.8719 3.21776 17.6246 2.2003 19.9482 2.2002Z" fill="#0D1216" stroke="#0D1216" stroke-width="2" stroke-linejoin="round"/>
</svg>
