<svg width="28" height="26" viewBox="0 0 28 26" fill="none" xmlns="http://www.w3.org/2000/svg">
<path d="M19.9482 1.2002C23.8982 1.2002 26.9999 4.17319 27 8.60449C27 11.1777 25.8902 13.8171 23.7773 16.4443C21.6644 19.0717 18.5901 21.6315 14.7832 24.0146C14.593 24.1339 14.3992 24.242 14.2295 24.3164C14.1455 24.3532 14.0786 24.3763 14.0303 24.3896C14.0175 24.3932 14.0074 24.3949 14 24.3965C13.9926 24.3949 13.9825 24.3932 13.9697 24.3896C13.9214 24.3763 13.8545 24.3532 13.7705 24.3164C13.6008 24.242 13.407 24.1339 13.2168 24.0146C9.41672 21.6315 6.34238 19.0719 4.22754 16.4443C2.11263 13.8166 1 11.1771 1 8.60449C1.00009 4.17432 4.10055 1.2002 8.06543 1.2002C10.39 1.20026 12.1532 2.23132 13.1777 3.71387C13.3637 3.98273 13.6692 4.14423 13.9961 4.14551C14.3231 4.14665 14.6304 3.98737 14.8184 3.71973C15.8719 2.21776 17.6246 1.2003 19.9482 1.2002Z" stroke="#0D1216" stroke-width="2" stroke-linejoin="round"/>
</svg>
