<svg width="16" height="16" viewBox="0 0 16 16" fill="none" xmlns="http://www.w3.org/2000/svg">
<path d="M6.28564 12.0003C6.28564 12.9096 6.64687 13.7817 7.28985 14.4247C7.93283 15.0677 8.8049 15.4289 9.71422 15.4289H11.9999C12.9092 15.4289 13.7813 15.0677 14.4243 14.4247C15.0672 13.7817 15.4285 12.9096 15.4285 12.0003V0.571777" stroke="#19B268" stroke-width="2" stroke-linecap="round" stroke-linejoin="round"/>
<path d="M11.9999 6.28596C11.9999 5.67975 11.7591 5.09837 11.3304 4.66972C10.9017 4.24106 10.3204 4.00024 9.71415 4.00024H2.857C2.2508 4.00024 1.66941 4.24106 1.24076 4.66972C0.812105 5.09837 0.571289 5.67975 0.571289 6.28596V8.57167C0.571289 9.17788 0.812105 9.75926 1.24076 10.1879C1.66941 10.6166 2.2508 10.8574 2.857 10.8574H3.99986L5.337 8.85739C5.44155 8.70182 5.58275 8.57435 5.74817 8.48621C5.91359 8.39807 6.09815 8.35197 6.28558 8.35197C6.473 8.35197 6.65756 8.39807 6.82298 8.48621C6.9884 8.57435 7.1296 8.70182 7.23415 8.85739L8.57129 10.8574H9.71415C10.3204 10.8574 10.9017 10.6166 11.3304 10.1879C11.7591 9.75926 11.9999 9.17788 11.9999 8.57167V6.28596Z" stroke="#19B268" stroke-width="2" stroke-linecap="round" stroke-linejoin="round"/>
</svg>
