<svg width="16" height="16" viewBox="0 0 16 16" fill="none" xmlns="http://www.w3.org/2000/svg">
<path d="M6.28564 12.0001C6.28564 12.9094 6.64687 13.7815 7.28985 14.4244C7.93283 15.0674 8.8049 15.4287 9.71422 15.4287H11.9999C12.9092 15.4287 13.7813 15.0674 14.4243 14.4244C15.0672 13.7815 15.4285 12.9094 15.4285 12.0001V0.571533" stroke="#9EAAB5" stroke-width="1.14286" stroke-linecap="round" stroke-linejoin="round"/>
<path d="M11.9999 6.28584C11.9999 5.67963 11.7591 5.09825 11.3304 4.6696C10.9017 4.24093 10.3204 4.00012 9.71415 4.00012H2.857C2.2508 4.00012 1.66941 4.24093 1.24076 4.6696C0.812105 5.09825 0.571289 5.67963 0.571289 6.28584V8.57155C0.571289 9.17776 0.812105 9.75914 1.24076 10.1878C1.66941 10.6165 2.2508 10.8573 2.857 10.8573H3.99986L5.337 8.85727C5.44155 8.7017 5.58275 8.57423 5.74817 8.48609C5.91359 8.39795 6.09815 8.35185 6.28558 8.35185C6.473 8.35185 6.65756 8.39795 6.82298 8.48609C6.9884 8.57423 7.1296 8.7017 7.23415 8.85727L8.57129 10.8573H9.71415C10.3204 10.8573 10.9017 10.6165 11.3304 10.1878C11.7591 9.75914 11.9999 9.17776 11.9999 8.57155V6.28584Z" stroke="#9EAAB5" stroke-width="1.14286" stroke-linecap="round" stroke-linejoin="round"/>
</svg>
