<svg width="16" height="16" viewBox="0 0 16 16" fill="none" xmlns="http://www.w3.org/2000/svg">
<path d="M12.1147 7.42868C13.6295 7.42868 14.8575 5.89365 14.8575 4.0001C14.8575 2.10656 13.6295 0.571533 12.1147 0.571533C10.5998 0.571533 9.37183 2.10656 9.37183 4.0001C9.37183 5.89365 10.5998 7.42868 12.1147 7.42868Z" stroke="#9EAAB5" stroke-width="1.14286" stroke-linecap="round" stroke-linejoin="round"/>
<path d="M12.114 7.42871V15.4287" stroke="#9EAAB5" stroke-width="1.14286" stroke-linecap="round" stroke-linejoin="round"/>
<path d="M4.00024 0.571533V15.4287" stroke="#9EAAB5" stroke-width="1.14286" stroke-linecap="round" stroke-linejoin="round"/>
<path d="M6.85735 0.571533V3.42868C6.85735 3.80388 6.78346 4.17541 6.63987 4.52206C6.49628 4.8687 6.28582 5.18367 6.02052 5.44898C5.7552 5.71429 5.44023 5.92474 5.09359 6.06833C4.74694 6.21192 4.37541 6.28582 4.00021 6.28582C3.24245 6.28582 2.51572 5.9848 1.9799 5.44898C1.44408 4.91317 1.14307 4.18644 1.14307 3.42868V0.571533" stroke="#9EAAB5" stroke-width="1.14286" stroke-linecap="round" stroke-linejoin="round"/>
</svg>
