<svg width="16" height="16" viewBox="0 0 16 16" fill="none" xmlns="http://www.w3.org/2000/svg">
<path d="M12.1147 7.42892C13.6295 7.42892 14.8575 5.89389 14.8575 4.00035C14.8575 2.10681 13.6295 0.571777 12.1147 0.571777C10.5998 0.571777 9.37183 2.10681 9.37183 4.00035C9.37183 5.89389 10.5998 7.42892 12.1147 7.42892Z" stroke="#19B268" stroke-width="2" stroke-linecap="round" stroke-linejoin="round"/>
<path d="M12.114 7.42871V15.4287" stroke="#19B268" stroke-width="2" stroke-linecap="round" stroke-linejoin="round"/>
<path d="M4.00012 0.571777V15.4289" stroke="#19B268" stroke-width="2" stroke-linecap="round" stroke-linejoin="round"/>
<path d="M6.85735 0.571777V3.42892C6.85735 3.80412 6.78346 4.17565 6.63987 4.5223C6.49628 4.86894 6.28582 5.18391 6.02052 5.44923C5.7552 5.71453 5.44023 5.92499 5.09359 6.06858C4.74694 6.21217 4.37541 6.28606 4.00021 6.28606C3.24245 6.28606 2.51572 5.98505 1.9799 5.44923C1.44408 4.91341 1.14307 4.18668 1.14307 3.42892V0.571777" stroke="#19B268" stroke-width="2" stroke-linecap="round" stroke-linejoin="round"/>
</svg>
