<svg width="16" height="16" viewBox="0 0 16 16" fill="none" xmlns="http://www.w3.org/2000/svg">
<path d="M8.58185 8.45008L6.96645 11.248M11.5115 2.60848C10.1433 3.44331 7.37597 5.62689 7.25258 7.68263M12.1761 2.99218C12.1675 4.61202 11.7117 8.13013 9.95669 9.24385M1.20007 12.7931L2.88904 12.0501C3.92107 11.5961 5.05819 11.435 6.17572 11.5845L6.22744 11.5914C7.36216 11.7432 8.43184 12.2092 9.3157 12.9369L10.6667 14.0491M4.44421 6.06122L12.7195 10.8389C13.1875 11.1092 13.786 10.9488 14.0562 10.4808C15.5875 7.82852 14.6788 4.43711 12.0265 2.90584L11.661 2.69477C9.00872 1.1635 5.61731 2.07223 4.08603 4.72447C3.81581 5.19251 3.97617 5.791 4.44421 6.06122Z" stroke="#19B268" stroke-width="2" stroke-linecap="round" stroke-linejoin="round"/>
</svg>
