<svg width="16" height="16" viewBox="0 0 16 16" fill="none" xmlns="http://www.w3.org/2000/svg">
<path d="M8.58172 8.45008L6.96633 11.248M11.5114 2.60848C10.1431 3.44331 7.37585 5.62689 7.25245 7.68263M12.176 2.99218C12.1674 4.61202 11.7116 8.13013 9.95657 9.24385M1.19995 12.7931L2.88892 12.0501C3.92095 11.5961 5.05807 11.435 6.1756 11.5845L6.22732 11.5914C7.36204 11.7432 8.43172 12.2092 9.31558 12.9369L10.6666 14.0491M4.44409 6.06122L12.7194 10.8389C13.1874 11.1092 13.7859 10.9488 14.0561 10.4808C15.5874 7.82852 14.6787 4.43711 12.0264 2.90584L11.6608 2.69477C9.00859 1.1635 5.61718 2.07223 4.08591 4.72447C3.81569 5.19251 3.97605 5.791 4.44409 6.06122Z" stroke="#9EAAB5" stroke-width="1.14286" stroke-linecap="round" stroke-linejoin="round"/>
</svg>
