<svg width="20" height="20" viewBox="0 0 20 20" fill="none" xmlns="http://www.w3.org/2000/svg">
<path d="M10 2.16663C12.9487 2.16663 15.3338 4.55093 15.334 7.49963C15.334 8.49215 14.9998 9.64165 14.4658 10.8336C13.9347 12.0191 13.2227 13.2112 12.5029 14.278C11.7842 15.3432 11.0639 16.2752 10.5234 16.941C10.3211 17.1904 10.1419 17.4001 10 17.567C9.85819 17.4002 9.67971 17.1901 9.47754 16.941C8.93714 16.2752 8.21677 15.3432 7.49805 14.278C6.77832 13.2112 6.06626 12.0191 5.53516 10.8336C5.00115 9.64161 4.66699 8.49218 4.66699 7.49963C4.66717 4.55103 7.0514 2.1668 10 2.16663ZM10 4.91663C9.31497 4.91671 8.65822 5.18907 8.17383 5.67346C7.68944 6.15785 7.41708 6.81461 7.41699 7.49963C7.41699 8.18478 7.68936 8.84231 8.17383 9.32678C8.6582 9.81107 9.31505 10.0835 10 10.0836C10.6851 10.0836 11.3427 9.81125 11.8271 9.32678C12.3116 8.84231 12.584 8.18478 12.584 7.49963C12.5839 6.81469 12.3114 6.15784 11.8271 5.67346C11.3427 5.18899 10.6851 4.91663 10 4.91663Z" stroke="#797F85"/>
</svg>
